<?xml version="1.0" encoding="utf-8" ?><svg xmlns="http://www.w3.org/2000/svg" xmlns:xlink="http://www.w3.org/1999/xlink" width="1024" height="1024" viewBox="0 0 1024 1024"><path fill="#5CA60D" d="M634.519 338.564C656.234 340.644 680.218 364.768 702.74 369.77C714.065 372.285 722.334 373.283 733.864 374.717C753.589 377.171 772.792 381.261 790.897 389.62C831.55 408.389 848.902 446.015 866.234 484.438C873.22 499.927 880.543 514.97 885.534 531.364C888.126 539.99 889.221 549.588 891.704 558.191C902.76 596.504 919.915 631.392 950.845 657.517C957.28 662.951 964.593 667.926 971.135 673.29C973.118 674.916 976.496 677.807 976.74 680.458L975.937 681.144C968.339 681.455 952.901 669.87 946.498 665.228C911.512 639.866 891.847 602.581 873.821 564.374C861.707 538.431 853.735 515.458 833.078 494.405C829.133 490.384 825.912 486.279 821.549 482.264C810.17 471.795 793.817 471.914 779.328 472.511C762.296 463.448 749.633 450.928 733.041 441.568C723.264 436.053 713.003 436.669 702.889 433.637C696.515 431.727 704.071 421.155 697.295 418.677C695.79 419.957 695.356 431.475 695.278 433.965C694.553 457.014 683.721 454.81 670.758 465.709C671.924 470.076 675.096 480.305 670.294 483.007C663.967 482.431 667.476 473.619 663.728 469.846C658.718 470.212 652.681 486.79 645.573 481.48C644.279 477.18 652.513 470.343 654.745 465.169C649.796 466.194 639.689 469.596 636.279 465.183C636.959 457.771 652.355 460.98 654.773 457.106C652.724 454.236 645.286 452.746 643.105 447.521C643.668 437.681 654.816 449.606 659.044 448.971C662.388 444.973 655.592 434.652 661.487 432.559C671.055 434.115 663.386 445.399 668.077 450.51C671.511 451.299 675.959 447.208 677.533 444.544C682.012 438.087 678.064 416.24 671.329 412.253C656.425 403.427 635.133 408.387 619.237 398.673C609.379 392.648 606.502 387.581 598.429 379.453C592.689 373.673 579.394 367.012 584.989 355.927C592.434 344.216 612.166 346.405 623.895 343.714C626.819 343.044 630.162 339.795 634.519 338.564ZM623.878 383.988C627.403 377.305 626.055 373.368 618.184 371.745C612.541 378.936 616.942 381.374 623.878 383.988Z"/><path fill="#5CA60D" d="M505.18 224.21C567.402 221.447 633.639 242.259 684.759 277.074C689.05 279.996 705.089 288.699 703.42 294.618C698.098 296.602 681.614 285.033 676.448 281.378C575.48 210.71 438.186 213.668 340.692 289.202C214.727 386.794 193.279 565.332 290.871 691.283C374.56 799.291 527.893 830.338 647.642 764.738C661.236 757.291 673.236 748.519 685.405 738.868C718.765 712.243 744.222 676.578 763.019 638.537C766.323 631.851 782.435 591.735 784.676 589.732L785.66 589.823C787.206 591.322 787.573 593.137 788.299 595.228C783.019 610.672 776.006 629.883 768.974 644.331C755.771 671.454 736.392 695.799 716.45 718.247C669.714 770.858 601.009 800.468 531.227 804.392C456.018 808.622 380.423 785.735 323.626 735.458C265.172 683.714 228.418 611.435 223.712 533.286C219.073 456.242 245.47 378.525 296.918 320.804C351.562 259.497 423.859 228.677 505.18 224.21Z"/><path fill="#5CA60D" d="M696.788 515.614C733.797 511.257 749.399 555.907 728.463 581.703C723.976 587.231 713.937 592.093 706.951 592.453C660.942 600.17 645.131 525.853 696.788 515.614ZM702.972 583.615C735.963 579.536 732.112 524.111 700.012 525.142C669.092 528.652 666.35 579.912 702.972 583.615Z"/><path fill="#5CA60D" d="M783.053 475.14C791.978 474.357 799.224 475.668 808.071 478.404C812.336 478.991 830.578 490.04 826.483 495.464C820.3 503.655 803.526 499.698 794.152 503.763L793.507 504.048C798.176 513.589 805.606 513.637 808.659 522.992C807.612 526.376 806.633 527.992 804.936 531.097C806.365 536.622 812.638 548.05 809.763 553.047C808.194 554.085 809.02 553.868 807.234 553.841C802.701 550.853 803.015 541.701 799.423 541.12C795.056 543.775 794.548 556.264 793.188 561.163C792.254 564.528 792.033 565.293 790.524 568.672C788.831 570.529 787.079 572.035 784.479 570.969C782.549 566.868 791.517 552.298 786.875 549.337C781.482 549.864 775.235 560.804 769.494 559.217C764.468 554.768 775.079 546.809 777.284 541.813C776.898 538.129 768.672 539.61 764.767 534.888C764.291 532.867 764.24 533.815 764.761 531.931C769.661 527.132 779.834 534.386 783.39 528.992C785.358 525.303 779.716 520.797 777.413 519.047C770.497 513.794 761.926 507.088 760.179 497.999C757.457 483.841 771.52 477.284 783.053 475.14Z"/><path fill="#5CA60D" d="M873.263 415.147C895.401 411.974 896.45 442.204 898.12 457.063C898.4 459.549 899.053 461.422 901.089 462.884C906.661 464.389 911.311 454.669 916.645 453.18C919.42 452.405 922.264 452.852 923.061 455.816C921.924 461.184 911.872 462.676 912.647 467.103C916.068 469.787 926.823 467.661 929.752 472.813C929.241 483.95 910.009 467.948 901.861 476.757C900.889 481.332 909.442 482.37 912.763 483.042C915.535 483.977 917.11 484.289 918.274 487.189C918.085 489.923 916.118 491.363 913.456 490.92C908.083 490.027 904.096 485.911 898.436 484.821C892.776 483.731 886.806 483.855 881.356 481.938C873.914 477.463 879.14 463.187 873.466 457.205C869.261 452.772 862.759 460.067 859.967 462.939C856.928 457.339 854.38 450.927 851.35 445.17C848 438.807 844.217 432.827 840.869 426.515C849.664 421.522 863.295 416.859 873.263 415.147Z"/><path fill="#5CA60D" d="M562.978 516.285C578.151 515.311 603.029 516.896 601.121 538.177C600.46 545.548 594.474 551.229 588.911 555.331C596.254 561.74 599.429 570.012 601.923 579.222C603.212 583.983 604.048 590.166 599.169 593.147C592.284 593.518 590.36 581.422 589.102 576.128C584.864 560.674 581.507 559.253 565.598 558.97C565.819 568.247 566.234 578.655 564.524 587.77C563.097 594.439 555.07 594.12 554.795 586.627C554.226 568.468 554.055 550.153 554.476 531.981C554.664 523.83 553.386 517.081 562.978 516.285ZM564.988 549.967C572.893 550.075 580.497 550.846 586.938 545.599C600.242 527.465 577.736 525.182 565.015 525.952C565.015 533.878 565.123 542.064 564.988 549.967Z"/><path fill="#5CA60D" d="M511.581 516.54C513.705 516.726 515.646 517.014 517.296 518.472C520.15 520.996 543.076 583.3 543.191 588.631C542.559 590.169 541.202 592.024 539.61 592.478C533.384 594.256 529.153 579.428 527.831 575.459C522.861 575.339 517.701 575.379 512.713 575.349L494.902 575.523C493.714 580.362 490.437 593.941 483.308 591.976C477.719 590.435 482.805 579.378 484.119 575.854C490.651 558.334 496.896 540.666 503.947 523.352C505.597 519.301 507.64 517.973 511.581 516.54ZM497.848 566.524L513.125 566.553C516.798 566.557 521.359 566.445 524.944 566.707C523.192 561.52 513.274 530.64 511.452 528.724L497.848 566.524Z"/><path fill="#5CA60D" d="M484.155 419.423C488.095 419.694 491.635 420.604 493.353 424.557C499.011 437.572 503.905 450.98 508.697 464.338C511.478 472.09 514.502 479.898 516.636 487.841C517.262 490.17 516.347 493.22 513.626 493.566C506.549 494.465 504.317 484.359 502.862 479.226C498.109 478.832 491.75 478.987 486.875 478.971L469.357 478.895C468.051 483.374 465.102 493.551 459.803 494.287C451.67 491.508 456.634 483.975 458.934 477.495C465.414 459.237 471.895 440.682 479.996 423.091C480.422 422.167 483.254 420.098 484.155 419.423ZM472.492 470.041L487.125 470.056L499.27 470.128C496.705 461.818 489.829 439.036 486.088 432.294C482.337 441.174 475.231 460.645 472.492 470.041Z"/><path fill="#5CA60D" d="M367.855 518.025C368.898 518.019 369.961 518.001 370.999 518.112C372.801 518.304 374.19 519.107 375.23 520.591C379.726 527.007 401.983 582.684 400.131 588.861C399.581 590.697 398.401 591.576 396.765 592.376C390.662 592.756 387.487 580.576 386.107 575.981L373.125 575.842L352.842 575.941C352.087 580.271 349.811 588.38 346.362 590.98C342.418 593.672 337.762 591.223 339.188 585.979C340.633 580.386 342.944 575.046 345.067 569.661C351.46 553.448 357.234 536.834 364.681 521.072C365.326 519.706 366.618 518.813 367.855 518.025ZM356.563 567.271C360.954 567.177 365.24 567.273 369.626 567.356C374.239 567.372 378.918 567.432 383.524 567.393C381.744 562.285 372.04 533.068 369.779 530.385C365.12 542.666 361.147 555.045 356.563 567.271Z"/><path fill="#5CA60D" d="M437.214 516.699C446.181 515.937 455.19 517.67 462.436 523.257C465.996 526.002 470.308 532.125 466.6 536.302C460.856 538.256 452.946 526.56 446.556 526.16C401.152 523.323 415.449 607.197 460.951 578.001C461.133 572.302 460.978 566.059 460.942 560.313C455.423 559.916 448.495 560.116 442.722 559.906C437.188 549.909 448.419 550.358 453.715 550.284C472.314 550.022 471.274 552.267 471.131 568.994C471.015 582.705 468.383 588.014 454.424 592.058C417.604 601.809 396.386 561.734 414.256 532.078C419.714 522.979 427.162 519.057 437.214 516.699Z"/><path fill="#5CA60D" d="M363.125 420.204C369.194 419.443 391.304 418.151 393.945 424.29C392.624 432.727 366.394 429.758 359.589 429.507C359.861 436.095 359.554 444.817 359.519 451.57C365.437 451.326 385.382 449.106 387.842 455.088C386.766 461.798 377.134 460.662 372.115 460.673C367.928 460.682 363.681 460.553 359.487 460.507C359.5 466.148 359.352 471.97 359.286 477.625C359.324 478.524 359.529 482.926 359.898 483.361C365.665 490.165 388.638 478.671 393.146 489.483C391.922 497.641 359.088 494.277 352.763 492.905C352.308 492.008 351.932 491.086 351.619 490.131C350.303 486.118 349.904 481.535 349.62 477.339C349.089 469.458 348.625 427.778 351.641 423.128C353.552 420.182 360.075 420.433 363.125 420.204Z"/><path fill="#5CA60D" d="M280.336 419.45C281.707 419.505 283.438 419.431 284.664 420.125C288.658 422.387 304.647 471.326 307.597 478.699C311.636 467.107 322.736 427.097 329.919 420.493C331.11 419.398 332.016 419.134 333.592 419.266C338.774 423.23 335.28 430.634 333.488 435.36C328.144 448.576 323.847 462.622 318.386 475.831C315.837 481.996 313.562 492.065 306.809 494.636C305.776 494.474 304.944 494.265 304.145 493.542C300.581 490.318 278.186 430.04 277.61 423.041C278.16 421.241 278.962 420.741 280.336 419.45Z"/><path fill="#5CA60D" d="M610.868 516.563C620.42 516.306 652.17 515.381 659.388 517.605C661.134 518.143 662.494 518.866 663.336 520.562C662.426 528.378 645.272 526.077 639.417 526.013C639.735 541.121 639.473 557.078 639.465 572.25C639.515 576.553 640.117 588.871 637.191 591.162C625.456 600.351 628.405 567.664 628.424 564.401L628.553 526.008L626.645 526.126C623.161 526.329 620.167 526.466 616.688 526.179C610.648 525.679 603.379 522.466 610.868 516.563Z"/><path fill="#5CA60D" d="M795.879 624.892C811.359 626.863 834.361 642.027 849.607 647.372C862.254 652.711 875.329 657.302 887.945 662.696C893.564 665.099 911.416 671.15 912.684 676.993C911.81 678.648 912.429 677.93 910.43 678.89C899.037 676.867 801.532 638.474 794.83 633.085C793.783 632.243 792.872 630.723 792.919 629.351C792.988 627.333 794.485 626.105 795.879 624.892Z"/><path fill="#5CA60D" d="M822.758 201.419C827.111 202.207 823.959 206.84 822.204 208.679C796.514 235.592 768.501 260.303 743.82 288.232C740.241 292.282 737.382 295.373 731.731 295.564C725.91 290.692 730.001 287.34 734.379 283.3C760.201 259.471 784.953 234.565 810.081 210.033C813.229 206.959 818.793 203.304 822.758 201.419Z"/><path fill="#5CA60D" d="M438.17 418.767C442.674 420.048 444.742 422.068 444.471 427.058C443.621 443.906 445.813 461.059 443.439 477.736C440.483 498.497 414.224 501.936 403.758 484.559C402.571 481.343 400.448 472.909 405.619 472.169C412.346 474.765 420.148 493.415 429.238 483.84C442.654 469.708 426.357 431.53 438.17 418.767Z"/><path fill="#5CA60D" d="M627.286 798.903C634.072 800.838 635.028 806.919 637.612 812.676C639.624 817.158 641.51 821.74 643.443 826.26L664.712 877.208C668.881 887.441 673.165 897.696 676.798 908.13C678.238 912.265 679.567 915.11 675.433 917.751C673.218 914.775 671.348 911.578 669.869 908.171C657.22 879.037 644.536 850.032 630.598 821.473C626.784 813.658 621.085 806.479 627.286 798.903Z"/><path fill="#5CA60D" d="M731.07 731.877C738.054 732.289 744.726 740.632 749.511 745.46L768.211 764.313C782.797 778.939 797.959 793.339 812.197 808.307C814.432 810.657 820.914 818.274 821.682 821.71C821.94 822.862 820.956 823.637 820.245 824.451C815.442 822.403 804.499 810.967 800.377 806.972L767.54 775.072C755.981 764.024 744.116 753.29 732.62 742.183C728.721 738.416 727.762 736.333 731.07 731.877Z"/><path fill="#5CA60D" d="M344.041 109.359C347.034 110.665 347.395 111.293 348.713 114.208C361.586 142.684 372.483 172.015 385.788 200.304C389.526 208.252 393.232 216.129 395.853 224.53C395.005 227.793 394.552 229.094 393.254 232.186C392.241 232.346 391.933 232.437 391.05 231.738C387.695 229.086 344.191 124.137 342.523 114.31C342.168 112.217 342.888 110.996 344.041 109.359Z"/><path fill="#5CA60D" d="M679.059 107.322C681.75 108.65 679.908 115.338 679.039 117.407C665.041 150.695 650.981 183.926 638.352 217.773C635.936 224.249 636.104 226.773 628.925 227.868C627.778 226.696 626.435 225.35 626.958 223.545C630.573 211.064 636.764 198.382 641.905 186.476L654.755 155.966C660.708 141.687 668.238 117.477 679.059 107.322Z"/><path fill="#5CA60D" d="M105.165 347.006C111.381 347.457 121.957 352.005 127.971 354.433L153.166 364.619L196.51 381.905C201.625 383.96 223.76 391.985 226.19 395.763C226.434 397.785 226.464 397.03 225.329 399.102C221.002 401.318 217.419 400.853 212.999 399.029C202.836 394.731 193.499 389.447 183.345 385.016C158.15 374.021 131.349 365.586 107.46 351.851C106.019 351.023 105.276 348.593 105.165 347.006Z"/><path fill="#5CA60D" d="M389.974 799.794C396.447 801.353 394.811 805.448 392.824 810.312C379.459 843.033 366.608 875.986 353.063 908.629C351.558 912.255 349.59 916.098 347.261 919.238L345.475 919.497C343.806 918.87 344.435 919.405 343.572 917.78C343.45 910.944 362.882 865.488 366.39 855.665C371.545 841.446 375.709 826.86 381.822 813.001C383.994 808.077 386.767 804.085 389.974 799.794Z"/><path fill="#5CA60D" d="M198.655 200.979C202.198 202.099 204.636 203.978 207.25 206.576C233.169 232.344 259.071 258.097 285.283 283.568C288.151 286.356 291.74 290.482 293.645 294.027C294.605 295.814 293.581 298.363 292.885 300.077C292.003 300.295 290.781 300.694 290.003 300.016C271.054 283.512 254.907 264.001 237.458 245.992C226.365 234.544 213.526 224.876 204.296 211.726C201.998 208.452 199.563 204.918 198.655 200.979Z"/><path fill="#5CA60D" d="M189.747 509.291C193.181 509.017 206.654 509.222 204.937 515.108C202.53 517.125 197.129 518.446 193.972 518.49C158.085 518.988 122.003 517.507 86.1251 518.554C81.8033 519.072 73.5627 518.749 71.2009 514.406L71.5556 513.478C76.2758 510.704 116.564 511.532 125.75 511.441C147.163 511.229 168.305 510.542 189.747 509.291Z"/><path fill="#5CA60D" d="M286.655 731.397C288.586 731.42 289.62 731.555 290.941 732.963C291.851 736.368 288.805 739.636 286.549 741.991C262.381 767.216 237.366 791.687 212.817 816.548C209.986 819.415 206.312 822.56 202.93 824.751C201.185 825.151 200.746 825.238 199.393 824.561L199.101 823.339C200.45 818.669 209.45 809.521 213.129 805.719C223.033 795.482 233.4 785.564 243.327 775.334C257.659 760.562 270.737 744.542 286.655 731.397Z"/><path fill="#5CA60D" d="M294.519 517.303C296.899 517.361 298.003 517.475 299.785 518.91C302.51 523.197 301.423 574.933 301.496 584.056C306.31 583.978 333.498 581.434 332.55 589.322C331.465 591.005 331.107 591.089 329.345 592.19C322.21 593.485 300.928 591.998 293.311 591.298C292.318 587.971 291.772 585.41 291.686 581.89C291.418 570.864 291.479 559.903 291.497 548.85C291.512 539.79 291.235 529.983 292.28 520.986C292.444 519.576 293.589 518.338 294.519 517.303Z"/><path fill="#5CA60D" d="M219.398 629.059C221.644 628.947 222.688 629.092 224.377 630.544C225.564 634.001 221.024 636.589 218.3 637.738C182.56 652.821 145.333 668.57 108.866 681.54C106.42 682.241 106.162 682.322 103.909 681.542L103.518 680.724C104.633 677.899 110.832 674.345 113.625 673.153C140.483 661.696 167.67 651.153 194.227 638.918C201.827 635.417 211.414 631.432 219.398 629.059Z"/><path fill="#5CA60D" d="M508.854 822.699C510.094 822.985 513.408 823.843 513.582 825.277C517.465 857.242 513.355 890.632 514.041 922.846C514.204 930.507 514.699 948.673 512.392 954.642C510.447 953.281 509.364 952.673 509.005 950.192C508.4 946.007 508.167 941.488 507.957 937.263C507.137 920.839 507.755 904.395 507.404 887.95C506.99 868.577 505.543 849.189 506.193 829.803C506.289 826.934 507.323 825.038 508.854 822.699Z"/><path fill="#5CA60D" d="M510.624 74.6056C511.932 75.1766 511.851 75.1862 513.055 75.9969C514.758 78.6899 514.036 95.4362 514.059 99.6537C514.149 115.767 513.811 131.966 513.999 148.083C513.966 158.461 515.205 168.978 515.437 179.308C515.655 189.017 519.19 199.482 512.541 207.255L510.459 206.994C505.462 203.967 507.572 159.65 507.731 150.616C508.109 129.253 503.432 94.1778 510.624 74.6056Z"/><path fill="#5CA60D" d="M706.743 317.743C716.729 318.256 714.762 326.519 720.043 333.71C722.93 330.297 725.792 321.748 730.26 322.421C733.671 325.226 731.289 329.805 729.432 332.301C720.938 343.718 728.794 346.547 733.567 356.771C736.088 362.17 727.611 365.224 723.414 366.485C715.622 367.745 698.145 366.94 710.604 355.801C712.299 354.285 714.41 352.769 716.203 351.276C711.872 344.067 702.331 343.259 699.076 335.965C699.118 334.135 698.797 334.884 699.954 333.593C703.357 332.707 709.236 335.474 713.016 336.706C710.632 329.537 707.452 328.193 705.227 321.73C704.834 320.589 706.069 318.795 706.743 317.743Z"/><path fill="#5CA60D" d="M913.644 344.577C915.165 344.51 916.059 344.273 917.268 345.146C917.473 345.796 917.742 346.035 917.375 346.686C913.757 353.118 861.9 373.665 851.804 378.232C841.408 382.934 831.642 389.563 820.532 392.447C818.237 391.984 816.667 391.637 815.127 389.801C814.993 388.844 814.724 388.483 815.198 387.918C817.347 385.358 822.831 382.404 825.784 380.976C838.562 374.799 852.023 369.586 865.154 364.137C880.286 357.858 897.964 348.65 913.644 344.577Z"/><defs><linearGradient id="gradient_0" gradientUnits="userSpaceOnUse" x1="726.17639" y1="644.33978" x2="720.17566" y2="659.9519"><stop offset="0" stop-color="#447509"/><stop offset="1" stop-color="#322A35"/></linearGradient></defs><path fill="url(#gradient_0)" d="M716.922 636.661C727.063 627.586 743.026 631.967 740.128 645.314C736.546 662.479 711.23 668.897 711.715 647.964C711.82 643.43 713.349 639.634 716.922 636.661ZM737.173 644.491C735.3 632.953 728.237 634.076 720.046 639.034C717.267 642.11 713.67 646.326 714.228 650.417C715.628 660.691 729.61 658.183 733.965 651.357C735.837 648.423 736.273 647.585 737.173 644.491Z"/><path fill="#5CA60D" d="M716.922 636.661C727.063 627.586 743.026 631.967 740.128 645.314L738.961 645.381C738.49 646.509 738.282 646.812 737.664 647.876L737.71 646.859L737.304 646.495C737.445 645.895 737.4 646.255 737.282 645.308L737.173 644.491C735.3 632.953 728.237 634.076 720.046 639.034C717.231 638.313 716.585 642.962 713.897 643.812C713.616 640.055 716.676 639.964 716.922 636.661Z"/></svg>